<mxfile host="app.diagrams.net" modified="2024-04-17T04:12:28.331Z" agent="Mozilla/5.0 (Windows NT 10.0; Win64; x64) AppleWebKit/537.36 (KHTML, like Gecko) Chrome/123.0.0.0 Safari/537.36" etag="f03xexCPMWYbO1rqUUtY" version="24.2.5" type="device" pages="2">
  <diagram name="Page-1" id="t34p18n0jnQB2IsNDoOR">
    <mxGraphModel dx="1000" dy="497" grid="1" gridSize="10" guides="1" tooltips="1" connect="1" arrows="1" fold="1" page="1" pageScale="1" pageWidth="850" pageHeight="1100" math="0" shadow="0">
      <root>
        <mxCell id="0" />
        <mxCell id="1" parent="0" />
        <mxCell id="vIZVQ2nJ25nebpcatL0J-1" value="User" style="rounded=0;whiteSpace=wrap;html=1;" parent="1" vertex="1">
          <mxGeometry x="110" y="210" width="80" height="30" as="geometry" />
        </mxCell>
        <mxCell id="vIZVQ2nJ25nebpcatL0J-2" value="enter" style="rhombus;whiteSpace=wrap;html=1;" parent="1" vertex="1">
          <mxGeometry x="110" y="270" width="80" height="60" as="geometry" />
        </mxCell>
        <mxCell id="vIZVQ2nJ25nebpcatL0J-3" value="Claim" style="rounded=0;whiteSpace=wrap;html=1;" parent="1" vertex="1">
          <mxGeometry x="110" y="360" width="80" height="30" as="geometry" />
        </mxCell>
        <mxCell id="vIZVQ2nJ25nebpcatL0J-4" value="sent to" style="rhombus;whiteSpace=wrap;html=1;" parent="1" vertex="1">
          <mxGeometry x="290" y="300" width="80" height="60" as="geometry" />
        </mxCell>
        <mxCell id="VWCcGMzlMe9jxiKxdoLM-4" value="" style="edgeStyle=orthogonalEdgeStyle;rounded=0;orthogonalLoop=1;jettySize=auto;html=1;" edge="1" parent="1" source="vIZVQ2nJ25nebpcatL0J-5" target="VWCcGMzlMe9jxiKxdoLM-3">
          <mxGeometry relative="1" as="geometry" />
        </mxCell>
        <mxCell id="vIZVQ2nJ25nebpcatL0J-5" value="Admin" style="rounded=0;whiteSpace=wrap;html=1;" parent="1" vertex="1">
          <mxGeometry x="460" y="250" width="80" height="30" as="geometry" />
        </mxCell>
        <mxCell id="vIZVQ2nJ25nebpcatL0J-6" value="verify" style="rhombus;whiteSpace=wrap;html=1;" parent="1" vertex="1">
          <mxGeometry x="460" y="320" width="80" height="60" as="geometry" />
        </mxCell>
        <mxCell id="vIZVQ2nJ25nebpcatL0J-7" value="Approve / Reject" style="rounded=0;whiteSpace=wrap;html=1;" parent="1" vertex="1">
          <mxGeometry x="460" y="420" width="80" height="30" as="geometry" />
        </mxCell>
        <mxCell id="vIZVQ2nJ25nebpcatL0J-8" value="Display" style="rhombus;whiteSpace=wrap;html=1;" parent="1" vertex="1">
          <mxGeometry x="290" y="385" width="80" height="60" as="geometry" />
        </mxCell>
        <mxCell id="vIZVQ2nJ25nebpcatL0J-9" value="" style="endArrow=classic;html=1;rounded=0;exitX=0;exitY=0.5;exitDx=0;exitDy=0;entryX=1;entryY=1;entryDx=0;entryDy=0;" parent="1" source="vIZVQ2nJ25nebpcatL0J-7" target="vIZVQ2nJ25nebpcatL0J-8" edge="1">
          <mxGeometry width="50" height="50" relative="1" as="geometry">
            <mxPoint x="390" y="410" as="sourcePoint" />
            <mxPoint x="320" y="490" as="targetPoint" />
          </mxGeometry>
        </mxCell>
        <mxCell id="vIZVQ2nJ25nebpcatL0J-10" value="" style="endArrow=classic;html=1;rounded=0;entryX=0.5;entryY=0;entryDx=0;entryDy=0;exitX=0.5;exitY=1;exitDx=0;exitDy=0;" parent="1" source="vIZVQ2nJ25nebpcatL0J-6" target="vIZVQ2nJ25nebpcatL0J-7" edge="1">
          <mxGeometry width="50" height="50" relative="1" as="geometry">
            <mxPoint x="390" y="410" as="sourcePoint" />
            <mxPoint x="440" y="360" as="targetPoint" />
          </mxGeometry>
        </mxCell>
        <mxCell id="vIZVQ2nJ25nebpcatL0J-11" value="" style="endArrow=classic;html=1;rounded=0;entryX=0.5;entryY=0;entryDx=0;entryDy=0;exitX=0.5;exitY=1;exitDx=0;exitDy=0;" parent="1" source="vIZVQ2nJ25nebpcatL0J-5" target="vIZVQ2nJ25nebpcatL0J-6" edge="1">
          <mxGeometry width="50" height="50" relative="1" as="geometry">
            <mxPoint x="510" y="390" as="sourcePoint" />
            <mxPoint x="510" y="430" as="targetPoint" />
          </mxGeometry>
        </mxCell>
        <mxCell id="vIZVQ2nJ25nebpcatL0J-12" value="" style="endArrow=classic;html=1;rounded=0;exitX=0.5;exitY=1;exitDx=0;exitDy=0;entryX=0.5;entryY=0;entryDx=0;entryDy=0;" parent="1" source="vIZVQ2nJ25nebpcatL0J-1" target="vIZVQ2nJ25nebpcatL0J-2" edge="1">
          <mxGeometry width="50" height="50" relative="1" as="geometry">
            <mxPoint x="390" y="410" as="sourcePoint" />
            <mxPoint x="440" y="360" as="targetPoint" />
          </mxGeometry>
        </mxCell>
        <mxCell id="vIZVQ2nJ25nebpcatL0J-13" value="" style="endArrow=classic;html=1;rounded=0;exitX=0.5;exitY=1;exitDx=0;exitDy=0;entryX=0.5;entryY=0;entryDx=0;entryDy=0;" parent="1" source="vIZVQ2nJ25nebpcatL0J-2" target="vIZVQ2nJ25nebpcatL0J-3" edge="1">
          <mxGeometry width="50" height="50" relative="1" as="geometry">
            <mxPoint x="160" y="250" as="sourcePoint" />
            <mxPoint x="160" y="280" as="targetPoint" />
          </mxGeometry>
        </mxCell>
        <mxCell id="vIZVQ2nJ25nebpcatL0J-14" value="" style="endArrow=classic;html=1;rounded=0;exitX=1;exitY=0.25;exitDx=0;exitDy=0;entryX=0;entryY=0.5;entryDx=0;entryDy=0;" parent="1" source="vIZVQ2nJ25nebpcatL0J-3" target="vIZVQ2nJ25nebpcatL0J-4" edge="1">
          <mxGeometry width="50" height="50" relative="1" as="geometry">
            <mxPoint x="160" y="250" as="sourcePoint" />
            <mxPoint x="160" y="280" as="targetPoint" />
          </mxGeometry>
        </mxCell>
        <mxCell id="vIZVQ2nJ25nebpcatL0J-15" value="" style="endArrow=classic;html=1;rounded=0;exitX=0;exitY=0.5;exitDx=0;exitDy=0;entryX=1;entryY=0.75;entryDx=0;entryDy=0;" parent="1" source="vIZVQ2nJ25nebpcatL0J-8" target="vIZVQ2nJ25nebpcatL0J-3" edge="1">
          <mxGeometry width="50" height="50" relative="1" as="geometry">
            <mxPoint x="200" y="378" as="sourcePoint" />
            <mxPoint x="150" y="430" as="targetPoint" />
          </mxGeometry>
        </mxCell>
        <mxCell id="vIZVQ2nJ25nebpcatL0J-16" value="" style="endArrow=classic;html=1;rounded=0;exitX=1;exitY=0;exitDx=0;exitDy=0;entryX=0;entryY=0.5;entryDx=0;entryDy=0;" parent="1" source="vIZVQ2nJ25nebpcatL0J-4" target="vIZVQ2nJ25nebpcatL0J-5" edge="1">
          <mxGeometry width="50" height="50" relative="1" as="geometry">
            <mxPoint x="200" y="378" as="sourcePoint" />
            <mxPoint x="300" y="340" as="targetPoint" />
          </mxGeometry>
        </mxCell>
        <mxCell id="VWCcGMzlMe9jxiKxdoLM-1" value="" style="endArrow=classic;html=1;rounded=0;exitX=0;exitY=0.5;exitDx=0;exitDy=0;entryX=1;entryY=0.5;entryDx=0;entryDy=0;" edge="1" parent="1" source="VWCcGMzlMe9jxiKxdoLM-3" target="VWCcGMzlMe9jxiKxdoLM-2">
          <mxGeometry width="50" height="50" relative="1" as="geometry">
            <mxPoint x="400" y="300" as="sourcePoint" />
            <mxPoint x="450" y="250" as="targetPoint" />
          </mxGeometry>
        </mxCell>
        <mxCell id="VWCcGMzlMe9jxiKxdoLM-6" value="" style="edgeStyle=orthogonalEdgeStyle;rounded=0;orthogonalLoop=1;jettySize=auto;html=1;" edge="1" parent="1" source="VWCcGMzlMe9jxiKxdoLM-2" target="VWCcGMzlMe9jxiKxdoLM-5">
          <mxGeometry relative="1" as="geometry" />
        </mxCell>
        <mxCell id="VWCcGMzlMe9jxiKxdoLM-2" value="Exam" style="rounded=0;whiteSpace=wrap;html=1;" vertex="1" parent="1">
          <mxGeometry x="270" y="110" width="120" height="30" as="geometry" />
        </mxCell>
        <mxCell id="VWCcGMzlMe9jxiKxdoLM-3" value="Enter" style="rhombus;whiteSpace=wrap;html=1;" vertex="1" parent="1">
          <mxGeometry x="460" y="85" width="80" height="80" as="geometry" />
        </mxCell>
        <mxCell id="VWCcGMzlMe9jxiKxdoLM-9" value="" style="edgeStyle=orthogonalEdgeStyle;rounded=0;orthogonalLoop=1;jettySize=auto;html=1;" edge="1" parent="1" source="VWCcGMzlMe9jxiKxdoLM-5">
          <mxGeometry relative="1" as="geometry">
            <mxPoint x="150" y="210" as="targetPoint" />
          </mxGeometry>
        </mxCell>
        <mxCell id="VWCcGMzlMe9jxiKxdoLM-5" value="Access" style="rhombus;whiteSpace=wrap;html=1;" vertex="1" parent="1">
          <mxGeometry x="110" y="85" width="80" height="80" as="geometry" />
        </mxCell>
      </root>
    </mxGraphModel>
  </diagram>
  <diagram id="nY1ILa2kMLXkOBvSzrk5" name="admin">
    <mxGraphModel dx="1050" dy="522" grid="1" gridSize="10" guides="1" tooltips="1" connect="1" arrows="1" fold="1" page="1" pageScale="1" pageWidth="850" pageHeight="1100" math="0" shadow="0">
      <root>
        <mxCell id="0" />
        <mxCell id="1" parent="0" />
      </root>
    </mxGraphModel>
  </diagram>
</mxfile>
